<?xml version="1.0" encoding="utf-8"?>
<!-- Generator: Adobe Illustrator 25.2.0, SVG Export Plug-In . SVG Version: 6.00 Build 0)  -->
<svg version="1.1" id="Layer_1" xmlns="http://www.w3.org/2000/svg" xmlns:xlink="http://www.w3.org/1999/xlink" x="0px" y="0px"
	 viewBox="0 0 1200 600" style="enable-background:new 0 0 1200 600;" xml:space="preserve">
<style type="text/css">
	.st0{fill:#FFFFFF;}
	.st1{fill:#F6F6F6;stroke:#3C4043;stroke-miterlimit:10;}
	.st2{fill:#4285F4;}
	.st3{fill:#FBBC04;stroke:#FBBC04;stroke-width:1.146;stroke-miterlimit:10;}
	.st4{fill:none;stroke:#3C4043;stroke-width:1.146;stroke-linecap:round;stroke-linejoin:round;stroke-miterlimit:10;}
	.st5{fill:#FFFFFF;stroke:#3C4043;stroke-width:1.146;stroke-miterlimit:10;}
	.st6{fill:#3C4043;}
	.st7{fill:#34A853;stroke:#34A853;stroke-width:1.146;stroke-miterlimit:10;}
	.st8{opacity:0.32;fill:#FFFFFF;enable-background:new    ;}
	.st9{fill:#E8EAED;}
	.st10{fill:#FFFFFF;stroke:#3C4043;stroke-linecap:round;stroke-linejoin:round;}
	.st11{fill:none;stroke:#70777D;stroke-linecap:round;stroke-linejoin:round;}
	.st12{fill:#FBBC04;stroke:#3C4043;stroke-miterlimit:10;}
	.st13{fill:#FFFFFF;stroke:#3C4043;stroke-miterlimit:10;}
	.st14{fill-rule:evenodd;clip-rule:evenodd;fill:#FBBC04;}
	.st15{fill:none;stroke:#3C4043;stroke-linecap:round;stroke-linejoin:round;}
	.st16{fill:#BDC1C6;stroke:#FCFCFC;stroke-width:0.5;stroke-miterlimit:10;}
	.st17{fill:#636669;}
	.st18{fill:#F9AB00;}
	.st19{fill:#FFFFFF;stroke:#3C4043;stroke-linecap:round;stroke-miterlimit:10;}
	.st20{fill:#8AB4F8;stroke:#8AB4F8;stroke-miterlimit:10;}
	.st21{fill:none;stroke:#3C4043;stroke-linecap:round;stroke-miterlimit:10;}
	.st22{fill:none;stroke:#000000;stroke-linecap:round;stroke-miterlimit:10;}
	.st23{fill:#EE675C;}
	.st24{fill:#669DF6;}
	.st25{fill:#FBBC04;}
	.st26{fill:#FBBC04;stroke:#FBBC04;stroke-width:0.8253;stroke-linecap:round;stroke-linejoin:round;}
	.st27{fill:#E8EAED;stroke:#E8EAED;stroke-linecap:round;stroke-linejoin:round;}
</style>
<rect x="-1.9" y="-1.4" class="st0" width="1201" height="599.6"/>
<rect x="460" y="67.3" class="st1" width="280.1" height="158.4"/>
<g>
	<path class="st2" d="M637.7,115.5c-6.2-2.4-11.9,1.4-16.9,4.6c-2.7,1.7-5.5,2.6-8.7,2.4c-3.4-0.3-6.7-1.3-10.1-1.1
		c-6.4,0.4-11.6,4.6-17.7,6.2c-0.5,0.1-0.4,0.9,0.1,0.9H645c-0.8-2.5-1.7-4.9-2.7-7.2c-0.7-1.6-1.5-3.6-3-4.7
		C638.9,116,638.3,115.7,637.7,115.5z"/>
	<path class="st3" d="M582.7,91.5c1.4,3.3,2,7.1,1.5,10.9c-1.5,11.4-12,19.4-23.4,17.9c-4.4-0.6-7.9-2-11-4.8
		C556.8,103.2,568.9,94.1,582.7,91.5z"/>
	<path class="st4" d="M594.5,90.1v94.7"/>
	<path class="st4" d="M542.9,149.8h103.2"/>
	<path class="st4" d="M646.8,203h21.9"/>
	<path class="st4" d="M520.8,203h21.9"/>
	<path class="st4" d="M542.3,142c0-28.8,23.4-52.1,52.2-52.1s52.2,23.3,52.2,52.1v61H542.3V142z"/>
	<path class="st0" d="M577.8,192.4c1.9-1.4,1.3-4.2-1-4.8c-0.3-0.1-0.6-0.2-0.9-0.3c-2.6-1-12.6-8.2-16.7-7.8c0,0-2.9,0.1-2.9,1.9
		c0,1.5,4.4,2.1,5.2,2.5c1.9,1.1,3,3.2,4.7,4.5c1.7,1.4,3.4,2.8,5.5,3.4C572.7,192.1,576.9,193,577.8,192.4L577.8,192.4z"/>
	<path class="st4" d="M576.7,192.7c0,0-6.2-0.3-11.4-5.4"/>
	<path class="st4" d="M558.9,182.7c-0.4-0.3-3.6-1-2.8-2.3c0.6-0.9,3-0.9,3.9-0.9c2.2,0.1,5.4,1.1,7.1,2.6"/>
	<path class="st5" d="M626.2,189c0,0,4.4,4.2,1.6,6.8c-1.6,1.5-9.5,2.7-10.6,4.6c-1.3,2.2,2.5,2.6,2.5,2.6s10.8,0.3,12.1-2
		C633.1,198.6,634.1,188.8,626.2,189z"/>
	<path class="st6" d="M631,194.5l-2.4-1.1c0,0-1.4-4.4-2.3-4.7C626.3,188.8,631,190.4,631,194.5z"/>
	<path class="st7" d="M557.8,203c-5.6,0-10.2-4.5-10.2-10.2c0-5.6,4.5-10.2,10.2-10.2s10.2,4.5,10.2,10.2
		C567.9,198.5,563.4,203,557.8,203z"/>
	<path class="st4" d="M554.5,183.2c1-0.3,2.1-0.5,3.2-0.5c5.6,0,10.2,4.5,10.2,10.2c0,5.6-4.5,10.2-10.2,10.2
		c-4.1,0-7.6-2.4-9.2-5.8"/>
	<path class="st0" d="M556.7,203c1.1,0.1,23.3,0.4,26.5-0.7c5.5-1.8,11.4-2.4,16.8-4.8c6.1-2.8,10.8-8.5,17.8-9.3
		c4.5-0.5,10.5-0.1,13.3,4.1c0.6,1,0.9,3.3,0,4.3c-1.1,1.1-10.6,3.1-11.7,4.8c-1.1,1.6,1,1.2,1,1.2s12.6,0.8,13.8-0.2
		c8.1-7.9,13.9-14.2,18.4-24.5c0.6-2.1,1.1-4.3,2.6-5.9c1.4-1.4,3.3-2.4,5.1-3c5.4-2.8,10.1-6.5,13.3-11.7c3-6.9,5.3-12.5,5.3-20.1
		c0-2.9-0.9-4.9-0.9-8.4c-0.8-1.3-2.1-4.2-3.4-3.3c-1.2,0.8-1.5,3.4-1.1,4.8c1.1,7.4,0.3,13-2.1,20.2c-3.3,5.5-5.1,10.8-13.6,14.8
		c-5.6,2.6-7.3,2.4-11.4-2.7c-4-4.9-16.4-11.5-32.3,1.5c-4.8,3.8-9.8,7.4-15.2,10c-2.3,1.1-4.7,2.1-7.2,2.4
		c-3.6,0.5-7.4-1.6-9.6-4.5c-0.8-1.1-1.3-2.3-2.1-3.4c-0.4-0.6-0.8-1.1-1.3-1.5c-0.2-0.2-2.2-0.7-2.2-0.9c0,0,0.7,4-0.1,5.1
		c-1,1.3-4.6,1.9-5.6,4.2s-0.7,3.9-1.6,4.9c-0.9,0.9-2.7,2.5-2.7,2.5s-0.2,1.8,1.1,2.9c1.3,1.1,8.1,2.4,9.2,2.6
		c0.1,0,0.2,0.1,0.2,0.1s0,0.1,0.1,0.1s0.2,0.1,0.3,0.2c0.1,0,0.1,0.1,0.1,0.1l0,0c0.3,0.4,0.5,0.9,0.6,1.5l0,0c0,0.2,0,0.4-0.1,0.6
		c0-0.2,0.1-0.4,0.1-0.6l-0.7,1.9c-0.1,0.2-0.3,0.3-0.4,0.5c-1.9,1.6-3.9,6-12.9,5.4s-11.8,0.1-12.6,1.9
		C550.4,201.8,555.5,202.9,556.7,203z M577.8,191.2v0.1C577.8,191.2,577.8,191.2,577.8,191.2z"/>
	<path class="st6" d="M571.7,180.9c-0.5,0-0.8-0.4-0.8-0.8c0-0.5,0.4-0.8,0.8-0.8s0.8,0.4,0.8,0.8
		C572.5,180.6,572.2,180.9,571.7,180.9z"/>
	<path class="st4" d="M622.5,178c-0.3,2.9-0.5,7.5,1.8,9.7c1.5,1.5,3.8,1.9,5.5,3.3c1.7,1.4,2.3,3.4,1.2,5.4s-9.5,2.8-11.8,4.8
		c-0.7,0.6-0.3,1.8,0.7,1.8h11.7c2.4,0,4.2-2.5,5.8-4c3.2-3.2,6.2-6.5,9.1-10c0,0,4.5-4.5,7-15c0.9-3.8,6.5-4.7,9.5-6.4
		c13.2-7.7,17.4-24.3,14.7-38.5c-0.2-1-0.8-3-1.8-3.5c-3.4-1.6-2.2,5.6-2,7c1.8,13-4.7,28.7-17.8,33.4c-3.6,1.3-4.8,2.2-7.2-0.7
		c-2.8-3.4-6.2-6.6-10.5-8c-7.1-2.4-15.2-0.9-22.3,5.4c-7.2,6.2-13,9.9-16.7,11.7"/>
	<path class="st6" d="M574.1,187.7c0,0,1.5,3.6,1.1,4.7l2.1,0.2c0,0,1.1-2.8,0-4C576.2,187.3,574.1,187.7,574.1,187.7z"/>
	<path class="st4" d="M625.9,188.8c0,0-8.6-2.2-14.5,1.6s-11.6,9.5-28.2,12.1c0,0-17.5,0.5-26.5,0.5c0,0-6.7-0.8-5.4-3.1
		c1-1.8,4.8-2.2,7.5-2.1c2.6,0.1,5.9-0.1,11-0.6s8.4-6,8-7.9s-1.7-1.4-4.9-1.9c-2.9-0.5-6.1-0.9-6.6-3.7c-0.1-0.5,0.1-1,0.6-1.3
		c0.7-0.6,1.9-1.5,2.1-2c1-2.6,0.5-5,3-6.4c1.4-0.8,4-1.4,4.5-3.2c0.3-1.3-0.4-2.5-0.3-3.8c0.1-1.2,1.3-0.9,2-0.3
		c0.7,0.6,1.3,1.3,1.8,2c1.7,2.4,4.4,8.4,10.4,7.8c6-0.6,8.8-2,8.8-2"/>
</g>
<rect x="460" y="226.9" class="st8" width="280.1" height="1.8"/>
<rect x="584.5" y="315.7" class="st9" width="65.4" height="8"/>
<rect x="584.5" y="295.8" class="st9" width="112.1" height="12"/>
<rect x="584.5" y="391.8" class="st9" width="65.4" height="8"/>
<rect x="584.5" y="371.8" class="st9" width="112.1" height="12"/>
<rect x="584.5" y="467.9" class="st9" width="65.4" height="8"/>
<rect x="584.5" y="447.9" class="st9" width="112.1" height="12"/>
<rect x="460" y="225.8" class="st10" width="280.1" height="56.7"/>
<g>
	<line class="st11" x1="709" y1="248.2" x2="721" y2="260.1"/>
	<line class="st11" x1="721" y1="248.2" x2="709" y2="260.1"/>
</g>
<g>
	<g>
		<g>
			<circle class="st12" cx="499.8" cy="254.1" r="17"/>
		</g>
	</g>
	<g>
		<g>
			<path class="st13" d="M502.5,265.9c-1.2-0.7-5.8-3-4.7-5c0.8-1.3,3.3-0.4,4.6-0.8c1.5-0.5,2.6-2.2,3-3.9c0.1-0.3,0.1-0.6,0.1-1.3
				c0-0.1-2.1-1.6-2.5-2.6c-0.4-0.8-0.5-1.7-1.2-2.4c-0.7-0.8-3-1.2-3-1.2s0-3.5,0-3.9c-2.5,0.6-6.9,2.4-10.4,10
				c-1.5,3.3-1.7,6.6-1.4,10.1c0,0.1,0,0.2,0,0.2c3.1,3.6,7.7,5.8,12.8,5.8c3.1,0,6.1-0.9,8.6-2.3c-0.3-0.1-0.5-0.3-0.8-0.4
				C505.8,267.5,504.1,266.8,502.5,265.9z"/>
		</g>
		<path class="st6" d="M504,254.4c0,0-0.5,1.5,0.7,2.2c0,0,0.6-0.7,0.6-1S504,254.4,504,254.4z"/>
		<circle class="st6" cx="498.7" cy="253.6" r="0.8"/>
	</g>
</g>
<g>
	<rect x="459.9" y="221.7" class="st14" width="85.5" height="3.5"/>
</g>
<g>
	<rect x="640.9" y="172.3" class="st6" width="99.2" height="37.6"/>
</g>
<g>
	<path class="st15" d="M487,28.6h226.2c14.7,0,26.8,11.9,26.8,26.6v485.5c0,14.7-12.1,26.6-26.8,26.6H487
		c-14.7,0-27.1-11.9-27.1-26.6V55.2C460,40.4,472.3,28.6,487,28.6z"/>
	<path class="st10" d="M460,55.2c0-14.7,12.3-26.6,27.1-26.6h226.2c14.7,0,26.8,11.9,26.8,26.6v13.3H460V55.2z"/>
	<path class="st10" d="M740,540.7c0,14.7-12.2,26.6-26.9,26.6H487c-14.7,0-27.1-11.9-27.1-26.6v-13.3H740V540.7L740,540.7z"/>
	<path class="st15" d="M556.9,41.8L556.9,41.8c0,3.7,3,6.7,6.7,6.7h73.2c3.7,0,6.7-3,6.7-6.7l0,0"/>
</g>
<rect x="472.3" y="295.9" class="st1" width="98.8" height="65.2"/>
<rect x="472.3" y="372.1" class="st1" width="98.8" height="65.2"/>
<rect x="472.3" y="448.3" class="st1" width="98.8" height="65.2"/>
<g>
	<circle class="st16" cx="719" cy="297.5" r="1.8"/>
	<circle class="st16" cx="718.9" cy="303.7" r="1.8"/>
	<circle class="st16" cx="718.9" cy="310" r="1.8"/>
</g>
<g>
	<circle class="st16" cx="719" cy="373.6" r="1.8"/>
	<circle class="st16" cx="718.9" cy="379.8" r="1.8"/>
	<circle class="st16" cx="718.9" cy="386.1" r="1.8"/>
</g>
<g>
	<circle class="st16" cx="719" cy="449.7" r="1.8"/>
	<circle class="st16" cx="718.9" cy="455.9" r="1.8"/>
	<circle class="st16" cx="718.9" cy="462.1" r="1.8"/>
</g>
<rect x="545.1" y="347.2" class="st17" width="20.1" height="8"/>
<rect x="545.1" y="423.3" class="st17" width="20.1" height="8"/>
<rect x="545.1" y="499.3" class="st17" width="20.1" height="8"/>
<rect x="433.1" y="68.6" class="st18" width="4" height="157.5"/>
<rect x="433.1" y="226.1" class="st2" width="4" height="302.8"/>
<g>
	<g>
		<path class="st13" d="M514,491.2c15.4-0.9,24.7-10.1,25.9-25.4l-4,0.9l0.9-4c-15.2,1.1-24.4,10.4-25.4,25.8"/>
		<path class="st19" d="M521.2,479.4L521.2,479.4c1.8,0.7,3.8,0.7,5.5,0l0,0"/>
		<path class="st19" d="M521,481.6L521,481.6c1.6,0.6,3.3,0.6,4.8,0l0,0"/>
		<path class="st19" d="M520.9,483.8L520.9,483.8c1.3,0.5,2.8,0.5,4.1,0l0,0"/>
	</g>
	<path class="st20" d="M511.5,488.5h-7.6c2,4.6,5.6,8.3,10.3,10.3v-7.6h-0.1C512.8,490.7,511.9,489.7,511.5,488.5L511.5,488.5z"/>
	<circle class="st6" cx="528.2" cy="469.3" r="1"/>
	<path class="st21" d="M514.1,499v-7.8H514c-1.2-0.5-2.1-1.4-2.6-2.6l0,0h-7.9"/>
</g>
<g>
	<path class="st22" d="M527.2,408.1v4.4c0,1-0.8,1.8-1.8,1.8h-14.7c-1,0-1.8,0.8-1.8,1.8l0,0c0,1,0.8,1.8,1.8,1.8H530
		c1,0,1.8,0.8,1.8,1.8v0.6c0,1-0.8,1.8-1.8,1.8h-30.5"/>
	<circle class="st23" cx="520.2" cy="400.8" r="11.8"/>
	<path class="st22" d="M531.9,400.8c0,4.6-2.6,8.5-6.4,10.5c-1.6,0.8-3.4,1.3-5.3,1.3"/>
	<g>
		<path class="st22" d="M513,396.5l0.4,0.2c5.4,2.2,9.6,6.5,11.7,12l0,0"/>
		<path class="st22" d="M514.4,395.2l0.4,0.2c5.4,2.2,9.6,6.5,11.7,12l0,0"/>
		<g>
			<line class="st22" x1="517" y1="407.3" x2="521.5" y2="402.9"/>
		</g>
		<g>
			<line class="st22" x1="515.7" y1="406" x2="520.1" y2="401.5"/>
		</g>
		<g>
			<line class="st22" x1="514.3" y1="404.6" x2="518.8" y2="400.2"/>
		</g>
	</g>
</g>
<g>
	<line class="st22" x1="520.7" y1="333.2" x2="520.7" y2="341.8"/>
	<g>
		<path class="st24" d="M508,334.9c4.1,4.4,11.4,5,16.3,1.2c4.8-3.7,5.5-10.3,1.4-14.7L508,334.9z"/>
	</g>
	<polygon class="st25" points="532.9,319.9 536.1,323.8 530.9,323.8 	"/>
	<line class="st22" x1="517.8" y1="336" x2="517.8" y2="341.8"/>
	<circle class="st24" cx="527.8" cy="319.9" r="4.8"/>
	<path class="st22" d="M527.8,324.7c2.6,0,4.8-2.1,4.8-4.8"/>
	<g>
		<path class="st24" d="M507.4,323.4c0.1,4.6,3.9,8.2,8.5,8.1c4.6-0.1,8.2-3.8,8.1-8.4L507.4,323.4z"/>
		<path class="st22" d="M524,323.1l-16.6,0.3c0.1,4.6,3.9,8.2,8.5,8.1c1.6,0,3.1-0.5,4.4-1.3"/>
	</g>
	<line class="st22" x1="509.1" y1="342.1" x2="530.3" y2="342.1"/>
</g>
<g>
	<rect x="527.7" y="257.5" class="st26" width="19.2" height="10.9"/>
	<path class="st0" d="M536,264.5h-2.1l-0.4,1.2h-1.2l2.2-5.8h1.1l2.2,5.8h-1.2L536,264.5z M534.1,263.5h1.5l-0.7-2.2L534.1,263.5z"
		/>
	<path class="st0" d="M537.9,263.5c0-0.7,0.2-1.2,0.4-1.6c0.3-0.4,0.7-0.6,1.2-0.6c0.4,0,0.7,0.2,1.1,0.5v-2.3h1.2v6.1h-1.1
		l-0.1-0.5c-0.2,0.3-0.7,0.6-1.1,0.6c-0.5,0-0.9-0.2-1.2-0.6C538.1,264.8,537.9,264.3,537.9,263.5z M539.1,263.6
		c0,0.4,0.1,0.7,0.2,0.9c0.2,0.2,0.3,0.3,0.6,0.3s0.6-0.2,0.7-0.4v-1.7c-0.2-0.3-0.4-0.4-0.7-0.4
		C539.4,262.3,539.1,262.7,539.1,263.6z"/>
</g>
<rect x="556.4" y="259.3" class="st27" width="30.9" height="7.4"/>
<rect x="527.7" y="239.8" class="st27" width="144.2" height="12"/>
<g>
	<path class="st0" d="M665.7,180.5h1.3l1.7,5l0.3,0.9h0.1l0.3-0.9l1.8-5h1.3l-2.7,7.5h-1.2L665.7,180.5z"/>
	<path class="st0" d="M673,181.6c-0.2-0.2-0.2-0.3-0.2-0.5c0-0.2,0.1-0.4,0.2-0.5s0.3-0.2,0.5-0.2s0.4,0.1,0.5,0.2
		c0.2,0.1,0.2,0.3,0.2,0.5c0,0.2-0.1,0.4-0.2,0.5c-0.2,0.2-0.3,0.2-0.5,0.2S673.1,181.8,673,181.6z M673,182.6h1.1v5.4H673V182.6z"
		/>
	<path class="st0" d="M676.4,187.8c-0.4-0.2-0.7-0.6-0.9-1c-0.2-0.4-0.3-0.9-0.3-1.5c0-0.5,0.1-1,0.3-1.5c0.2-0.4,0.5-0.8,0.9-1
		c0.4-0.2,0.8-0.4,1.3-0.4c0.4,0,0.7,0.1,1,0.3c0.3,0.2,0.5,0.4,0.7,0.6h0.1l-0.1-0.7v-2.1h1.1v7.5h-1.1v-0.7h-0.1
		c-0.2,0.2-0.4,0.5-0.7,0.6c-0.3,0.2-0.6,0.3-1,0.3C677.3,188.2,676.8,188.1,676.4,187.8z M678.7,186.9c0.2-0.2,0.4-0.4,0.6-0.6
		c0.2-0.3,0.2-0.6,0.2-0.9s-0.1-0.7-0.2-0.9c-0.2-0.3-0.3-0.5-0.6-0.6s-0.5-0.2-0.8-0.2s-0.5,0.1-0.8,0.2c-0.2,0.2-0.4,0.4-0.6,0.6
		c-0.2,0.3-0.2,0.6-0.2,0.9s0.1,0.7,0.2,0.9c0.2,0.3,0.3,0.5,0.6,0.6c0.2,0.2,0.5,0.2,0.8,0.2S678.5,187.1,678.7,186.9z"/>
	<path class="st0" d="M682.9,187.8c-0.4-0.2-0.7-0.6-1-1c-0.2-0.4-0.4-0.9-0.4-1.5c0-0.5,0.1-1,0.3-1.4c0.2-0.4,0.5-0.8,1-1
		c0.4-0.3,0.9-0.4,1.4-0.4c0.5,0,1,0.1,1.4,0.4c0.4,0.2,0.7,0.6,0.9,1s0.3,0.9,0.3,1.4c0,0.1,0,0.3,0,0.4h-4.2
		c0,0.5,0.2,0.9,0.5,1.2c0.3,0.3,0.7,0.4,1.1,0.4c0.3,0,0.6-0.1,0.9-0.2c0.2-0.2,0.4-0.4,0.6-0.6l0.9,0.5c-0.2,0.4-0.6,0.8-1,1
		c-0.4,0.3-0.9,0.4-1.5,0.4C683.8,188.2,683.4,188.1,682.9,187.8z M685.8,184.7c0-0.2-0.1-0.4-0.2-0.6c-0.1-0.2-0.3-0.4-0.5-0.5
		c-0.2-0.1-0.5-0.2-0.8-0.2c-0.4,0-0.7,0.1-1,0.3c-0.3,0.2-0.4,0.5-0.5,0.9H685.8z"/>
	<path class="st0" d="M689.1,187.8c-0.4-0.2-0.8-0.6-1-1s-0.4-0.9-0.4-1.5s0.1-1,0.4-1.5c0.2-0.4,0.6-0.8,1-1
		c0.4-0.2,0.9-0.4,1.5-0.4c0.5,0,1,0.1,1.4,0.4c0.4,0.3,0.8,0.6,1,1c0.2,0.4,0.4,0.9,0.4,1.4c0,0.5-0.1,1-0.4,1.5s-0.6,0.8-1,1
		c-0.4,0.2-0.9,0.4-1.4,0.4C690,188.2,689.5,188.1,689.1,187.8z M691.4,186.9c0.3-0.1,0.5-0.4,0.6-0.6c0.2-0.3,0.2-0.6,0.2-1
		c0-0.4-0.1-0.7-0.2-1c-0.2-0.3-0.4-0.5-0.6-0.6c-0.3-0.1-0.5-0.2-0.8-0.2c-0.3,0-0.6,0.1-0.8,0.2c-0.3,0.1-0.5,0.4-0.6,0.6
		c-0.2,0.3-0.2,0.6-0.2,1c0,0.4,0.1,0.7,0.2,1c0.2,0.3,0.4,0.5,0.6,0.6c0.3,0.1,0.5,0.2,0.8,0.2
		C690.8,187.1,691.1,187.1,691.4,186.9z"/>
	<path class="st0" d="M696.2,182.6h1.2l1.1,3.9h0l1.2-3.9h1.2l1.2,3.9h0l1.1-3.9h1.2l-1.7,5.4h-1.2l-1.2-3.9h0l-1.2,3.9h-1.2
		L696.2,182.6z"/>
	<path class="st0" d="M705.4,181.6c-0.2-0.2-0.2-0.3-0.2-0.5c0-0.2,0.1-0.4,0.2-0.5s0.3-0.2,0.5-0.2s0.4,0.1,0.5,0.2
		c0.2,0.1,0.2,0.3,0.2,0.5c0,0.2-0.1,0.4-0.2,0.5c-0.2,0.2-0.3,0.2-0.5,0.2S705.6,181.8,705.4,181.6z M705.4,182.6h1.1v5.4h-1.1
		V182.6z"/>
	<path class="st0" d="M707.9,180.5h1.1v7.5h-1.1V180.5z"/>
	<path class="st0" d="M710.4,180.5h1.1v7.5h-1.1V180.5z"/>
	<path class="st0" d="M660.4,195.3h1.1v0.7h0.1c0.2-0.3,0.4-0.5,0.7-0.6c0.3-0.2,0.7-0.3,1-0.3c0.5,0,0.9,0.1,1.3,0.4
		c0.4,0.2,0.7,0.6,0.9,1c0.2,0.4,0.3,0.9,0.3,1.5c0,0.5-0.1,1-0.3,1.5c-0.2,0.4-0.5,0.8-0.9,1c-0.4,0.2-0.8,0.4-1.3,0.4
		c-0.4,0-0.7-0.1-1-0.3c-0.3-0.2-0.5-0.4-0.7-0.6h-0.1l0.1,0.7v2.2h-1.1V195.3z M663.9,199.5c0.2-0.2,0.4-0.4,0.6-0.6
		c0.1-0.3,0.2-0.6,0.2-0.9s-0.1-0.7-0.2-0.9c-0.1-0.3-0.3-0.5-0.6-0.6s-0.5-0.2-0.8-0.2c-0.3,0-0.5,0.1-0.8,0.2
		c-0.2,0.2-0.4,0.4-0.6,0.6s-0.2,0.6-0.2,0.9s0.1,0.7,0.2,0.9c0.2,0.3,0.4,0.5,0.6,0.6c0.2,0.2,0.5,0.2,0.8,0.2
		C663.4,199.8,663.7,199.7,663.9,199.5z"/>
	<path class="st0" d="M666.8,193.1h1.1v7.5h-1.1V193.1z"/>
	<path class="st0" d="M669.9,200.6c-0.3-0.2-0.5-0.4-0.7-0.6c-0.2-0.3-0.3-0.6-0.3-0.9c0-0.4,0.1-0.7,0.3-1c0.2-0.3,0.5-0.5,0.8-0.6
		c0.3-0.1,0.7-0.2,1.1-0.2c0.3,0,0.6,0,0.9,0.1s0.5,0.1,0.6,0.2v-0.3c0-0.3-0.1-0.6-0.4-0.8c-0.3-0.2-0.6-0.3-1-0.3
		c-0.3,0-0.5,0.1-0.8,0.2c-0.2,0.1-0.4,0.3-0.6,0.5l-0.8-0.6c0.2-0.3,0.5-0.6,0.9-0.8s0.8-0.3,1.3-0.3c0.8,0,1.4,0.2,1.8,0.6
		c0.4,0.4,0.6,0.9,0.6,1.6v3.4h-1.1V200h-0.1c-0.2,0.2-0.4,0.4-0.7,0.6c-0.3,0.2-0.6,0.2-1,0.2C670.5,200.8,670.2,200.7,669.9,200.6
		z M671.9,199.7c0.2-0.1,0.4-0.3,0.5-0.6c0.1-0.2,0.2-0.5,0.2-0.7c-0.2-0.1-0.4-0.2-0.6-0.2c-0.2-0.1-0.4-0.1-0.7-0.1
		c-0.4,0-0.8,0.1-1,0.3c-0.2,0.2-0.3,0.4-0.3,0.7c0,0.3,0.1,0.5,0.3,0.6c0.2,0.2,0.4,0.2,0.8,0.2
		C671.4,199.9,671.7,199.8,671.9,199.7z"/>
	<path class="st0" d="M676.5,200.3l-2.2-5.1h1.3l1.5,3.7h0.1l1.5-3.7h1.3l-3.3,7.6h-1.2L676.5,200.3z"/>
	<path class="st0" d="M683.8,200.6c-0.3-0.2-0.5-0.4-0.7-0.6c-0.2-0.3-0.3-0.6-0.3-0.9c0-0.4,0.1-0.7,0.3-1c0.2-0.3,0.5-0.5,0.8-0.6
		c0.3-0.1,0.7-0.2,1.1-0.2c0.3,0,0.6,0,0.9,0.1s0.5,0.1,0.6,0.2v-0.3c0-0.3-0.1-0.6-0.4-0.8c-0.3-0.2-0.6-0.3-1-0.3
		c-0.3,0-0.5,0.1-0.8,0.2c-0.2,0.1-0.4,0.3-0.6,0.5l-0.8-0.6c0.2-0.3,0.5-0.6,0.9-0.8s0.8-0.3,1.3-0.3c0.8,0,1.4,0.2,1.8,0.6
		c0.4,0.4,0.6,0.9,0.6,1.6v3.4h-1.1V200h-0.1c-0.2,0.2-0.4,0.4-0.7,0.6c-0.3,0.2-0.6,0.2-1,0.2C684.4,200.8,684.1,200.7,683.8,200.6
		z M685.8,199.7c0.2-0.1,0.4-0.3,0.5-0.6c0.1-0.2,0.2-0.5,0.2-0.7c-0.2-0.1-0.4-0.2-0.6-0.2c-0.2-0.1-0.4-0.1-0.7-0.1
		c-0.4,0-0.8,0.1-1,0.3c-0.2,0.2-0.3,0.4-0.3,0.7c0,0.3,0.1,0.5,0.3,0.6c0.2,0.2,0.4,0.2,0.8,0.2
		C685.3,199.9,685.5,199.8,685.8,199.7z"/>
	<path class="st0" d="M693.7,200.6c-0.2-0.1-0.4-0.2-0.5-0.3c-0.3-0.3-0.5-0.7-0.5-1.2v-2.8h-2.3v4.4h-1.1v-4.4h-1v-1h1v-0.4
		c0-0.6,0.2-1,0.5-1.3c0.3-0.3,0.8-0.5,1.3-0.5c0.3,0,0.5,0,0.7,0.1v1.1c0,0-0.1,0-0.2-0.1s-0.3-0.1-0.4-0.1c-0.2,0-0.4,0.1-0.5,0.2
		c-0.1,0.2-0.2,0.4-0.2,0.6v0.3h2.3v-1.5h1.1v1.5h1.3v1h-1.3v2.6c0,0.3,0.1,0.5,0.2,0.6c0.1,0.1,0.3,0.2,0.5,0.2c0.1,0,0.2,0,0.3,0
		c0.1,0,0.2-0.1,0.3-0.2v1.1c-0.2,0.1-0.5,0.2-0.8,0.2C694.2,200.7,693.9,200.7,693.7,200.6z"/>
	<path class="st0" d="M697.2,200.4c-0.4-0.2-0.7-0.6-1-1c-0.2-0.4-0.4-0.9-0.4-1.5c0-0.5,0.1-1,0.3-1.4c0.2-0.4,0.5-0.8,1-1
		c0.4-0.3,0.9-0.4,1.4-0.4c0.5,0,1,0.1,1.4,0.4c0.4,0.2,0.7,0.6,0.9,1s0.3,0.9,0.3,1.4c0,0.1,0,0.3,0,0.4h-4.2
		c0,0.5,0.2,0.9,0.5,1.2c0.3,0.3,0.7,0.4,1.1,0.4c0.3,0,0.6-0.1,0.9-0.2c0.2-0.2,0.4-0.4,0.6-0.6l0.9,0.5c-0.2,0.4-0.6,0.8-1,1
		c-0.4,0.3-0.9,0.4-1.5,0.4C698,200.8,697.6,200.7,697.2,200.4z M700,197.3c0-0.2-0.1-0.4-0.2-0.6c-0.1-0.2-0.3-0.4-0.5-0.5
		c-0.2-0.1-0.5-0.2-0.8-0.2c-0.4,0-0.7,0.1-1,0.3c-0.3,0.2-0.4,0.5-0.5,0.9H700z"/>
	<path class="st0" d="M702.2,195.3h1.1v0.8h0.1c0.1-0.3,0.3-0.5,0.6-0.7s0.6-0.3,0.9-0.3c0.2,0,0.5,0,0.7,0.1v1.2
		c-0.3-0.1-0.6-0.2-0.8-0.2c-0.4,0-0.7,0.2-1,0.5c-0.3,0.3-0.4,0.7-0.4,1.1v2.9h-1.1V195.3z"/>
	<path class="st0" d="M709.5,200.6c-0.3-0.2-0.5-0.4-0.7-0.6c-0.2-0.3-0.3-0.6-0.3-0.9c0-0.4,0.1-0.7,0.3-1c0.2-0.3,0.5-0.5,0.8-0.6
		c0.3-0.1,0.7-0.2,1.1-0.2c0.3,0,0.6,0,0.9,0.1s0.5,0.1,0.6,0.2v-0.3c0-0.3-0.1-0.6-0.4-0.8c-0.3-0.2-0.6-0.3-1-0.3
		c-0.3,0-0.5,0.1-0.8,0.2c-0.2,0.1-0.4,0.3-0.6,0.5l-0.8-0.6c0.2-0.3,0.5-0.6,0.9-0.8s0.8-0.3,1.3-0.3c0.8,0,1.4,0.2,1.8,0.6
		c0.4,0.4,0.6,0.9,0.6,1.6v3.4h-1.1V200h-0.1c-0.2,0.2-0.4,0.4-0.7,0.6c-0.3,0.2-0.6,0.2-1,0.2C710.1,200.8,709.8,200.7,709.5,200.6
		z M711.5,199.7c0.2-0.1,0.4-0.3,0.5-0.6c0.1-0.2,0.2-0.5,0.2-0.7c-0.2-0.1-0.4-0.2-0.6-0.2c-0.2-0.1-0.4-0.1-0.7-0.1
		c-0.4,0-0.8,0.1-1,0.3c-0.2,0.2-0.3,0.4-0.3,0.7c0,0.3,0.1,0.5,0.3,0.6c0.2,0.2,0.4,0.2,0.8,0.2C711,199.9,711.3,199.8,711.5,199.7
		z"/>
	<path class="st0" d="M715.5,200.4c-0.4-0.2-0.7-0.6-0.9-1c-0.2-0.4-0.3-0.9-0.3-1.5c0-0.5,0.1-1,0.3-1.5c0.2-0.4,0.5-0.8,0.9-1
		c0.4-0.2,0.8-0.4,1.3-0.4c0.4,0,0.7,0.1,1,0.3c0.3,0.2,0.5,0.4,0.7,0.6h0.1l-0.1-0.7v-2.1h1.1v7.5h-1.1v-0.7h-0.1
		c-0.2,0.2-0.4,0.5-0.7,0.6c-0.3,0.2-0.7,0.3-1,0.3C716.3,200.8,715.9,200.7,715.5,200.4z M717.8,199.5c0.2-0.2,0.4-0.4,0.6-0.6
		c0.2-0.3,0.2-0.6,0.2-0.9s-0.1-0.7-0.2-0.9s-0.4-0.5-0.6-0.6c-0.2-0.2-0.5-0.2-0.8-0.2c-0.3,0-0.5,0.1-0.8,0.2
		c-0.2,0.2-0.4,0.4-0.6,0.6s-0.2,0.6-0.2,0.9s0.1,0.7,0.2,0.9c0.2,0.3,0.4,0.5,0.6,0.6c0.2,0.2,0.5,0.2,0.8,0.2
		C717.3,199.8,717.5,199.7,717.8,199.5z"/>
</g>
<g>
	<path class="st18" d="M247.4,68.3h5c0.9,0,1.7,0.2,2.5,0.6c0.7,0.4,1.3,0.9,1.8,1.6c0.4,0.7,0.6,1.5,0.6,2.4s-0.2,1.7-0.6,2.4
		c-0.4,0.7-1,1.2-1.8,1.6c-0.7,0.4-1.6,0.6-2.5,0.6h-2.3v5.3h-2.7V68.3z M252.5,74.8c0.7,0,1.2-0.2,1.6-0.6c0.4-0.4,0.6-0.9,0.6-1.4
		s-0.2-1-0.6-1.4c-0.4-0.4-0.9-0.6-1.6-0.6h-2.4v3.9H252.5z"/>
	<path class="st18" d="M259.3,72.4h2.5v1.4h0.2c0.3-0.5,0.6-0.9,1.2-1.2s1.1-0.5,1.8-0.5c0.5,0,0.9,0.1,1.3,0.2v2.6
		c-0.4-0.1-0.7-0.2-0.9-0.3c-0.2-0.1-0.5-0.1-0.8-0.1c-0.8,0-1.4,0.3-1.8,0.8s-0.7,1.3-0.7,2.1v5.1h-2.6V72.4z"/>
	<path class="st18" d="M268.1,70.8c-0.3-0.3-0.5-0.7-0.5-1.2s0.2-0.9,0.5-1.2c0.3-0.3,0.7-0.5,1.2-0.5s0.9,0.2,1.2,0.5
		c0.3,0.3,0.5,0.7,0.5,1.2s-0.2,0.9-0.5,1.2c-0.3,0.3-0.7,0.5-1.2,0.5S268.4,71.1,268.1,70.8z M268,72.4h2.6v10.2H268V72.4z"/>
	<path class="st18" d="M273.3,72.4h2.5v1.3h0.2c0.3-0.5,0.8-0.9,1.3-1.2s1.1-0.4,1.8-0.4c0.7,0,1.3,0.2,1.9,0.5s0.9,0.8,1.1,1.3
		c0.3-0.5,0.8-1,1.4-1.3c0.6-0.3,1.3-0.5,2.1-0.5c1.2,0,2,0.4,2.6,1.1c0.6,0.7,0.9,1.7,0.9,2.9v6.6h-2.6v-6.1c0-0.6-0.2-1.1-0.5-1.5
		s-0.7-0.5-1.2-0.5c-0.7,0-1.2,0.3-1.6,0.8c-0.4,0.5-0.6,1.2-0.6,2.1v5.1h-2.6v-6.1c0-0.6-0.2-1.1-0.5-1.5s-0.8-0.5-1.3-0.5
		c-0.6,0-1.2,0.3-1.5,0.8c-0.4,0.5-0.6,1.2-0.6,2.1v5.1h-2.6V72.4z"/>
	<path class="st18" d="M291.9,82c-0.7-0.6-1-1.5-1-2.5c0-0.7,0.2-1.3,0.5-1.8c0.4-0.5,0.9-0.9,1.5-1.2s1.3-0.4,2.1-0.4
		c1.1,0,2,0.2,2.7,0.5v-0.4c0-0.6-0.2-1-0.6-1.4s-1-0.5-1.7-0.5c-0.5,0-0.9,0.1-1.4,0.3c-0.4,0.2-0.8,0.5-1.1,0.9l-1.7-1.3
		c0.5-0.6,1.1-1.1,1.9-1.5c0.7-0.3,1.6-0.5,2.4-0.5c1.6,0,2.7,0.4,3.6,1.1c0.8,0.7,1.2,1.8,1.2,3.2v6.3h-2.6v-1h-0.2
		c-0.3,0.4-0.7,0.7-1.2,1c-0.5,0.3-1.1,0.4-1.7,0.4C293.5,82.9,292.6,82.6,291.9,82z M297,80.1c0.4-0.5,0.7-1.1,0.7-1.7
		c-0.7-0.3-1.4-0.5-2.1-0.5c-1.4,0-2,0.5-2,1.5c0,0.4,0.1,0.8,0.4,1c0.3,0.3,0.7,0.4,1.3,0.4C295.9,80.9,296.5,80.6,297,80.1z"/>
	<path class="st18" d="M302.6,72.4h2.5v1.4h0.2c0.3-0.5,0.6-0.9,1.2-1.2s1.1-0.5,1.8-0.5c0.5,0,0.9,0.1,1.3,0.2v2.6
		c-0.4-0.1-0.7-0.2-0.9-0.3c-0.2-0.1-0.5-0.1-0.8-0.1c-0.8,0-1.4,0.3-1.8,0.8s-0.7,1.3-0.7,2.1v5.1h-2.6V72.4z"/>
	<path class="st18" d="M314.8,82.1l-4.3-9.7h3l2.6,6.3h0.2l2.5-6.3h2.9l-6.3,14.5h-2.8L314.8,82.1z"/>
	<path class="st18" d="M326.7,72.4h3l2.6,6.6h0.2l2.6-6.6h2.9l-4.4,10.2H331L326.7,72.4z"/>
	<path class="st18" d="M339.7,70.8c-0.3-0.3-0.5-0.7-0.5-1.2s0.2-0.9,0.5-1.2c0.3-0.3,0.7-0.5,1.2-0.5s0.9,0.2,1.2,0.5
		c0.3,0.3,0.5,0.7,0.5,1.2s-0.2,0.9-0.5,1.2c-0.3,0.3-0.7,0.5-1.2,0.5S340,71.1,339.7,70.8z M339.6,72.4h2.6v10.2h-2.6V72.4z"/>
	<path class="st18" d="M346.7,82.2c-0.8-0.5-1.3-1.1-1.8-1.9c-0.4-0.8-0.7-1.8-0.7-2.8c0-1,0.2-2,0.7-2.8c0.4-0.8,1-1.5,1.8-1.9
		c0.8-0.5,1.6-0.7,2.5-0.7c0.7,0,1.3,0.1,1.8,0.4c0.5,0.3,0.9,0.7,1.2,1.1h0.2l-0.2-1.4v-3.9h2.6v14.3h-2.4v-1.2h-0.2
		c-0.3,0.4-0.7,0.8-1.2,1.1s-1.2,0.4-1.8,0.4C348.3,82.9,347.4,82.7,346.7,82.2z M351,80.1c0.4-0.3,0.8-0.6,1-1.1
		c0.3-0.5,0.4-1,0.4-1.6s-0.1-1.1-0.4-1.6c-0.3-0.5-0.6-0.8-1-1c-0.4-0.2-0.9-0.4-1.4-0.4c-0.5,0-0.9,0.1-1.4,0.4s-0.8,0.6-1,1
		s-0.4,1-0.4,1.6s0.1,1.1,0.4,1.6s0.6,0.8,1,1.1c0.4,0.3,0.9,0.4,1.4,0.4C350.1,80.5,350.6,80.4,351,80.1z"/>
	<path class="st18" d="M359.4,82.2c-0.8-0.5-1.5-1.1-1.9-1.9c-0.5-0.8-0.7-1.7-0.7-2.8c0-1,0.2-1.9,0.7-2.7c0.5-0.8,1.1-1.5,1.9-2
		c0.8-0.5,1.7-0.7,2.7-0.7c1.1,0,2,0.2,2.7,0.7c0.8,0.5,1.3,1.1,1.7,1.9c0.4,0.8,0.6,1.7,0.6,2.6c0,0.3,0,0.6-0.1,0.9h-7.7
		c0.1,0.8,0.5,1.4,1,1.9c0.5,0.4,1.1,0.6,1.8,0.6c0.6,0,1.1-0.1,1.6-0.4c0.4-0.3,0.8-0.6,1-1.1l2.1,1c-1,1.8-2.6,2.7-4.7,2.7
		C361.1,82.9,360.2,82.7,359.4,82.2z M364.5,76.2c0-0.3-0.1-0.6-0.4-1s-0.5-0.6-0.9-0.8c-0.4-0.2-0.8-0.3-1.3-0.3
		c-0.6,0-1.2,0.2-1.6,0.5c-0.4,0.4-0.8,0.9-1,1.5H364.5z"/>
	<path class="st18" d="M371.2,82.2c-0.8-0.5-1.5-1.1-1.9-1.9s-0.7-1.7-0.7-2.8c0-1,0.2-1.9,0.7-2.8c0.5-0.8,1.1-1.5,1.9-1.9
		c0.8-0.5,1.8-0.7,2.8-0.7c1,0,2,0.2,2.8,0.7c0.8,0.5,1.5,1.1,1.9,1.9c0.5,0.8,0.7,1.7,0.7,2.8c0,1-0.2,1.9-0.7,2.8
		s-1.1,1.5-1.9,1.9c-0.8,0.5-1.8,0.7-2.8,0.7C373,82.9,372.1,82.7,371.2,82.2z M375.5,80.1c0.4-0.2,0.8-0.6,1-1
		c0.3-0.5,0.4-1,0.4-1.6c0-0.6-0.1-1.1-0.4-1.6c-0.3-0.5-0.6-0.8-1-1c-0.4-0.2-0.9-0.4-1.4-0.4s-1,0.1-1.4,0.4c-0.4,0.2-0.8,0.6-1,1
		c-0.3,0.5-0.4,1-0.4,1.6c0,0.6,0.1,1.1,0.4,1.6c0.3,0.5,0.6,0.8,1,1s0.9,0.4,1.4,0.4S375,80.4,375.5,80.1z"/>
	<path class="st18" d="M386.6,82c-0.7-0.6-1-1.5-1-2.5c0-0.7,0.2-1.3,0.5-1.8c0.4-0.5,0.9-0.9,1.5-1.2s1.3-0.4,2.1-0.4
		c1.1,0,2,0.2,2.7,0.5v-0.4c0-0.6-0.2-1-0.6-1.4s-1-0.5-1.7-0.5c-0.5,0-0.9,0.1-1.4,0.3c-0.4,0.2-0.8,0.5-1.1,0.9l-1.7-1.3
		c0.5-0.6,1.1-1.1,1.9-1.5c0.7-0.3,1.6-0.5,2.4-0.5c1.6,0,2.7,0.4,3.6,1.1c0.8,0.7,1.2,1.8,1.2,3.2v6.3h-2.6v-1h-0.2
		c-0.3,0.4-0.7,0.7-1.2,1c-0.5,0.3-1.1,0.4-1.7,0.4C388.2,82.9,387.3,82.6,386.6,82z M391.7,80.1c0.4-0.5,0.7-1.1,0.7-1.7
		c-0.7-0.3-1.4-0.5-2.1-0.5c-1.4,0-2,0.5-2,1.5c0,0.4,0.1,0.8,0.4,1c0.3,0.3,0.7,0.4,1.3,0.4C390.7,80.9,391.3,80.6,391.7,80.1z"/>
	<path class="st18" d="M399.2,82.2c-0.8-0.5-1.3-1.1-1.8-1.9c-0.4-0.8-0.7-1.8-0.7-2.8c0-1,0.2-2,0.7-2.8c0.4-0.8,1-1.5,1.8-1.9
		c0.8-0.5,1.6-0.7,2.5-0.7c0.7,0,1.3,0.1,1.8,0.4c0.5,0.3,0.9,0.7,1.2,1.1h0.2l-0.2-1.4v-3.9h2.6v14.3h-2.4v-1.2h-0.2
		c-0.3,0.4-0.7,0.8-1.2,1.1s-1.2,0.4-1.8,0.4C400.7,82.9,399.9,82.7,399.2,82.2z M403.5,80.1c0.4-0.3,0.8-0.6,1-1.1
		c0.3-0.5,0.4-1,0.4-1.6s-0.1-1.1-0.4-1.6c-0.3-0.5-0.6-0.8-1-1c-0.4-0.2-0.9-0.4-1.4-0.4c-0.5,0-0.9,0.1-1.4,0.4s-0.8,0.6-1,1
		s-0.4,1-0.4,1.6s0.1,1.1,0.4,1.6s0.6,0.8,1,1.1c0.4,0.3,0.9,0.4,1.4,0.4C402.6,80.5,403.1,80.4,403.5,80.1z"/>
</g>
<g>
	<path class="st2" d="M247.4,229h5.2c0.9,0,1.8,0.2,2.5,0.6s1.3,0.9,1.7,1.6s0.6,1.5,0.6,2.3c0,0.9-0.3,1.7-0.9,2.5
		c-0.6,0.7-1.3,1.2-2.2,1.5l0,0.1l3.8,5.5v0.2h-3.1l-3.7-5.4h-1.3v5.4h-2.7V229z M252.6,235.5c0.6,0,1.1-0.2,1.5-0.6
		s0.6-0.8,0.6-1.4c0-0.5-0.2-1-0.5-1.4c-0.4-0.4-0.9-0.6-1.5-0.6h-2.5v4H252.6z"/>
	<path class="st2" d="M261.6,242.9c-0.8-0.5-1.5-1.1-1.9-1.9c-0.5-0.8-0.7-1.7-0.7-2.8c0-1,0.2-1.9,0.7-2.7c0.5-0.8,1.1-1.5,1.9-2
		c0.8-0.5,1.7-0.7,2.7-0.7c1.1,0,2,0.2,2.7,0.7c0.8,0.5,1.3,1.1,1.7,1.9c0.4,0.8,0.6,1.7,0.6,2.6c0,0.3,0,0.6-0.1,0.9h-7.7
		c0.1,0.8,0.5,1.4,1,1.9c0.5,0.4,1.1,0.6,1.8,0.6c0.6,0,1.1-0.1,1.6-0.4c0.4-0.3,0.8-0.6,1-1.1l2.1,1c-1,1.8-2.6,2.7-4.7,2.7
		C263.3,243.6,262.4,243.4,261.6,242.9z M266.7,237c0-0.3-0.1-0.6-0.4-1s-0.5-0.6-0.9-0.8c-0.4-0.2-0.8-0.3-1.3-0.3
		c-0.6,0-1.2,0.2-1.6,0.5c-0.4,0.4-0.8,0.9-1,1.5H266.7z"/>
	<path class="st2" d="M271.3,229h2.6v14.3h-2.6V229z"/>
	<path class="st2" d="M276.8,242.7c-0.7-0.6-1-1.5-1-2.5c0-0.7,0.2-1.3,0.5-1.8c0.4-0.5,0.9-0.9,1.5-1.2s1.3-0.4,2.1-0.4
		c1.1,0,2,0.2,2.7,0.5v-0.4c0-0.6-0.2-1-0.6-1.4s-1-0.5-1.7-0.5c-0.5,0-0.9,0.1-1.4,0.3c-0.4,0.2-0.8,0.5-1.1,0.9l-1.7-1.3
		c0.5-0.6,1.1-1.1,1.9-1.5c0.7-0.3,1.6-0.5,2.4-0.5c1.6,0,2.7,0.4,3.6,1.1c0.8,0.7,1.2,1.8,1.2,3.2v6.3h-2.6v-1h-0.2
		c-0.3,0.4-0.7,0.7-1.2,1c-0.5,0.3-1.1,0.4-1.7,0.4C278.4,243.6,277.5,243.3,276.8,242.7z M281.9,240.9c0.4-0.5,0.7-1.1,0.7-1.7
		c-0.7-0.3-1.4-0.5-2.1-0.5c-1.4,0-2,0.5-2,1.5c0,0.4,0.1,0.8,0.4,1c0.3,0.3,0.7,0.4,1.3,0.4C280.9,241.6,281.5,241.4,281.9,240.9z"
		/>
	<path class="st2" d="M290.4,243.4c-0.4-0.2-0.8-0.4-1-0.6c-0.6-0.6-0.9-1.5-0.9-2.6v-4.8h-1.8v-2.2h1.8v-2.9h2.6v2.9h2.5v2.2h-2.5
		v4.3c0,0.5,0.1,0.9,0.3,1.2c0.2,0.2,0.5,0.3,1,0.3c0.3,0,0.5,0,0.6-0.1c0.2-0.1,0.4-0.2,0.7-0.3v2.6c-0.6,0.2-1.2,0.3-1.8,0.3
		C291.3,243.6,290.9,243.6,290.4,243.4z"/>
	<path class="st2" d="M297.4,242.9c-0.8-0.5-1.5-1.1-1.9-1.9c-0.5-0.8-0.7-1.7-0.7-2.8c0-1,0.2-1.9,0.7-2.7c0.5-0.8,1.1-1.5,1.9-2
		c0.8-0.5,1.7-0.7,2.7-0.7c1.1,0,2,0.2,2.7,0.7c0.8,0.5,1.3,1.1,1.7,1.9c0.4,0.8,0.6,1.7,0.6,2.6c0,0.3,0,0.6-0.1,0.9h-7.7
		c0.1,0.8,0.5,1.4,1,1.9c0.5,0.4,1.1,0.6,1.8,0.6c0.6,0,1.1-0.1,1.6-0.4c0.4-0.3,0.8-0.6,1-1.1l2.1,1c-1,1.8-2.6,2.7-4.7,2.7
		C299.2,243.6,298.3,243.4,297.4,242.9z M302.6,237c0-0.3-0.1-0.6-0.4-1s-0.5-0.6-0.9-0.8c-0.4-0.2-0.8-0.3-1.3-0.3
		c-0.6,0-1.2,0.2-1.6,0.5c-0.4,0.4-0.8,0.9-1,1.5H302.6z"/>
	<path class="st2" d="M309.1,242.9c-0.8-0.5-1.3-1.1-1.8-1.9c-0.4-0.8-0.7-1.8-0.7-2.8c0-1,0.2-2,0.7-2.8c0.4-0.8,1-1.5,1.8-1.9
		c0.8-0.5,1.6-0.7,2.5-0.7c0.7,0,1.3,0.1,1.8,0.4c0.5,0.3,0.9,0.7,1.2,1.1h0.2l-0.2-1.4V229h2.6v14.3h-2.4v-1.2h-0.2
		c-0.3,0.4-0.7,0.8-1.2,1.1s-1.2,0.4-1.8,0.4C310.7,243.6,309.9,243.4,309.1,242.9z M313.4,240.8c0.4-0.3,0.8-0.6,1-1.1
		c0.3-0.5,0.4-1,0.4-1.6s-0.1-1.1-0.4-1.6c-0.3-0.5-0.6-0.8-1-1c-0.4-0.2-0.9-0.4-1.4-0.4c-0.5,0-0.9,0.1-1.4,0.4s-0.8,0.6-1,1
		s-0.4,1-0.4,1.6s0.1,1.1,0.4,1.6s0.6,0.8,1,1.1c0.4,0.3,0.9,0.4,1.4,0.4C312.6,241.2,313,241.1,313.4,240.8z"/>
	<path class="st2" d="M323.4,233.1h3l2.6,6.6h0.2l2.6-6.6h2.9l-4.4,10.2h-2.6L323.4,233.1z"/>
	<path class="st2" d="M336.4,231.5c-0.3-0.3-0.5-0.7-0.5-1.2s0.2-0.9,0.5-1.2c0.3-0.3,0.7-0.5,1.2-0.5s0.9,0.2,1.2,0.5
		c0.3,0.3,0.5,0.7,0.5,1.2s-0.2,0.9-0.5,1.2c-0.3,0.3-0.7,0.5-1.2,0.5S336.7,231.8,336.4,231.5z M336.3,233.1h2.6v10.2h-2.6V233.1z"
		/>
	<path class="st2" d="M343.4,242.9c-0.8-0.5-1.3-1.1-1.8-1.9c-0.4-0.8-0.7-1.8-0.7-2.8c0-1,0.2-2,0.7-2.8c0.4-0.8,1-1.5,1.8-1.9
		c0.8-0.5,1.6-0.7,2.5-0.7c0.7,0,1.3,0.1,1.8,0.4c0.5,0.3,0.9,0.7,1.2,1.1h0.2l-0.2-1.4V229h2.6v14.3h-2.4v-1.2h-0.2
		c-0.3,0.4-0.7,0.8-1.2,1.1s-1.2,0.4-1.8,0.4C345,243.6,344.1,243.4,343.4,242.9z M347.7,240.8c0.4-0.3,0.8-0.6,1-1.1
		c0.3-0.5,0.4-1,0.4-1.6s-0.1-1.1-0.4-1.6c-0.3-0.5-0.6-0.8-1-1c-0.4-0.2-0.9-0.4-1.4-0.4c-0.5,0-0.9,0.1-1.4,0.4s-0.8,0.6-1,1
		s-0.4,1-0.4,1.6s0.1,1.1,0.4,1.6s0.6,0.8,1,1.1c0.4,0.3,0.9,0.4,1.4,0.4C346.8,241.2,347.3,241.1,347.7,240.8z"/>
	<path class="st2" d="M356.1,242.9c-0.8-0.5-1.5-1.1-1.9-1.9c-0.5-0.8-0.7-1.7-0.7-2.8c0-1,0.2-1.9,0.7-2.7c0.5-0.8,1.1-1.5,1.9-2
		c0.8-0.5,1.7-0.7,2.7-0.7c1.1,0,2,0.2,2.7,0.7c0.8,0.5,1.3,1.1,1.7,1.9c0.4,0.8,0.6,1.7,0.6,2.6c0,0.3,0,0.6-0.1,0.9H356
		c0.1,0.8,0.5,1.4,1,1.9c0.5,0.4,1.1,0.6,1.8,0.6c0.6,0,1.1-0.1,1.6-0.4c0.4-0.3,0.8-0.6,1-1.1l2.1,1c-1,1.8-2.6,2.7-4.7,2.7
		C357.8,243.6,356.9,243.4,356.1,242.9z M361.2,237c0-0.3-0.1-0.6-0.4-1s-0.5-0.6-0.9-0.8c-0.4-0.2-0.8-0.3-1.3-0.3
		c-0.6,0-1.2,0.2-1.6,0.5c-0.4,0.4-0.8,0.9-1,1.5H361.2z"/>
	<path class="st2" d="M367.9,242.9c-0.8-0.5-1.5-1.1-1.9-1.9s-0.7-1.7-0.7-2.8c0-1,0.2-1.9,0.7-2.8c0.5-0.8,1.1-1.5,1.9-1.9
		c0.8-0.5,1.8-0.7,2.8-0.7c1,0,2,0.2,2.8,0.7c0.8,0.5,1.5,1.1,1.9,1.9c0.5,0.8,0.7,1.7,0.7,2.8c0,1-0.2,1.9-0.7,2.8
		s-1.1,1.5-1.9,1.9c-0.8,0.5-1.8,0.7-2.8,0.7C369.7,243.6,368.7,243.4,367.9,242.9z M372.1,240.9c0.4-0.2,0.8-0.6,1-1
		c0.3-0.5,0.4-1,0.4-1.6c0-0.6-0.1-1.1-0.4-1.6c-0.3-0.5-0.6-0.8-1-1c-0.4-0.2-0.9-0.4-1.4-0.4s-1,0.1-1.4,0.4c-0.4,0.2-0.8,0.6-1,1
		c-0.3,0.5-0.4,1-0.4,1.6c0,0.6,0.1,1.1,0.4,1.6c0.3,0.5,0.6,0.8,1,1s0.9,0.4,1.4,0.4S371.7,241.1,372.1,240.9z"/>
	<path class="st2" d="M378.9,242.9c-0.8-0.5-1.3-1.2-1.6-2l2.3-1c0.2,0.5,0.5,0.8,0.9,1.1c0.4,0.2,0.8,0.4,1.4,0.4
		c0.5,0,0.9-0.1,1.2-0.2c0.3-0.2,0.5-0.4,0.5-0.8c0-0.3-0.1-0.6-0.4-0.8c-0.3-0.2-0.7-0.3-1.3-0.5l-1.2-0.3
		c-0.8-0.2-1.5-0.6-2.1-1.1c-0.5-0.5-0.8-1.2-0.8-2c0-0.6,0.2-1.1,0.5-1.6c0.4-0.5,0.8-0.8,1.4-1.1c0.6-0.3,1.3-0.4,2-0.4
		c2.1,0,3.5,0.7,4.2,2.2l-2.2,1c-0.4-0.7-1-1.1-1.9-1.1c-0.5,0-0.8,0.1-1.1,0.2c-0.3,0.2-0.4,0.4-0.4,0.6c0,0.5,0.5,0.8,1.4,1.1
		l1.5,0.4c1,0.3,1.8,0.6,2.3,1.2c0.5,0.5,0.8,1.2,0.8,1.9c0,0.7-0.2,1.2-0.6,1.7s-0.9,0.9-1.6,1.2c-0.7,0.3-1.4,0.4-2.2,0.4
		C380.7,243.6,379.7,243.4,378.9,242.9z"/>
</g>
</svg>
